<svg xmlns="http://www.w3.org/2000/svg" width="123.688" height="50" viewBox="0 0 123.688 50"><defs><style>.a{fill:#003e6b;}.b{fill:#a4a7aa;}</style></defs><g transform="translate(35.541)"><path class="a" d="M480.238,1086.48c-.751,0-1.347-.022-1.908-.063-2.267-.054-2.288-1.535-2.288-2.711V1078.5h2.744c3.972,0,6.343,1.529,6.343,4.089,0,2.327-1.966,3.891-4.891,3.891m-4.253-18.21.161-.023a20.06,20.06,0,0,1,3.453-.25c2.253,0,4.66.84,4.66,3.2,0,3.21-2.942,3.643-5.821,3.643h-2.454Zm-5.6-2.433v21.125c0,1.654.2,2.206,1.541,2.645a34.943,34.943,0,0,0,7.556.831c3.59,0,11.941-.721,11.941-7.4,0-3.238-2.543-6.006-6.454-6.611a6.289,6.289,0,0,0,5.178-6.071c0-6-8.3-6.463-10.838-6.463a43.957,43.957,0,0,0-7.7.675c-1.025.169-1.22.567-1.22,1.272" transform="translate(-470.386 -1061.748)"/><path class="a" d="M595.947,1111.161a8.2,8.2,0,0,0,2.5-.3c.373-.112.56-.3.56-.821v-5.074c-.522-.037-1.007-.075-1.455-.075-4.067,0-5.075,2.015-5.075,3.433,0,2.612,2.015,2.836,3.47,2.836m3.022-10.635c0-1.53-.373-2.388-3.507-2.388a32.722,32.722,0,0,0-6.567,1.082c-.634.15-.783-.187-.783-.485v-2.426a.753.753,0,0,1,.522-.858,31.833,31.833,0,0,1,8.022-1.232,11.562,11.562,0,0,1,5.56,1.083c1.866,1.045,2.351,2.761,2.351,4.813v10.261c0,2.873-1.008,3.321-3.545,3.881a23.933,23.933,0,0,1-5.187.522c-4.253,0-8.918-.522-8.918-6.381,0-3.433,2.127-6.9,10.522-6.9.485,0,1.007,0,1.53.037Z" transform="translate(-563.909 -1086.089)"/><path class="a" d="M691.426,1065.011l4.142-.746c.559-.112.821.149.821.672v7.088a11.108,11.108,0,0,1,5.3-1.381c4.067,0,6.53,1.194,6.53,5.336v14.179a.56.56,0,0,1-.6.56h-4.441a.56.56,0,0,1-.6-.56V1076.95c0-1.977-.9-2.463-2.2-2.463a9.291,9.291,0,0,0-3.993,1.119v14.552a.56.56,0,0,1-.6.56h-4.44a.559.559,0,0,1-.6-.56v-24.253c0-.559.149-.783.672-.9" transform="translate(-647.244 -1062.028)"/><path class="a" d="M807.41,1097.3v3.06a1.075,1.075,0,0,1-.783,1.194,24.306,24.306,0,0,0-6.343,3.321v11.194a.522.522,0,0,1-.6.56h-4.44a.54.54,0,0,1-.6-.56v-17.91c0-.522.187-.858.672-.933l4.067-.672c.6-.112.9.186.9.6v2.873a17.1,17.1,0,0,1,5.671-3.4q1.456-.392,1.456.672" transform="translate(-730.625 -1087.935)"/><path class="a" d="M875.133,1116.647h-4.44a.568.568,0,0,1-.6-.6v-17.91c0-.485.149-.821.634-.9l4.067-.672c.6-.112.9.149.9.6v18.88a.539.539,0,0,1-.56.6" transform="translate(-791.175 -1087.956)"/><path class="a" d="M871.08,1053.036a3.245,3.245,0,1,0,3.245,3.245,3.245,3.245,0,0,0-3.245-3.245" transform="translate(-789.361 -1053.036)"/></g><g transform="translate(84.771 32.514)"><path class="a" d="M848.146,1278.57a1.306,1.306,0,1,0,1.305,1.306,1.306,1.306,0,0,0-1.305-1.306" transform="translate(-821.742 -1266.554)"/><path class="a" d="M750.023,1288.959a1.306,1.306,0,1,0,1.306,1.305,1.305,1.305,0,0,0-1.306-1.305" transform="translate(-742.993 -1274.892)"/><path class="a" d="M734.843,1288.959a1.306,1.306,0,1,0,1.306,1.305,1.305,1.305,0,0,0-1.306-1.305" transform="translate(-730.811 -1274.892)"/><path class="a" d="M887.233,1218.022l1.666-.3c.225-.045.33.06.33.27v10.148a.225.225,0,0,1-.24.225H887.2a.225.225,0,0,1-.24-.225v-9.758c0-.226.06-.315.27-.36" transform="translate(-853.943 -1217.712)"/><path class="a" d="M795.1,1217.722l-1.666.3c-.21.045-.27.135-.27.36v8.12h-.982a1.368,1.368,0,0,1-1-.259,1.3,1.3,0,0,1-.227-.859v-3.542c0-.211-.1-.316-.33-.271l-1.666.3c-.21.045-.27.135-.27.36v3.331q0,.6-.218.769a1.3,1.3,0,0,1-.77.17h-1a.217.217,0,0,1-.216-.206,7.9,7.9,0,0,0-.274-1.681,4.475,4.475,0,0,0-.786-1.579,3.743,3.743,0,0,0-1.385-1.078,4.973,4.973,0,0,0-2.2-.4,5.922,5.922,0,0,0-1.207.151q-.507.115-.842.219a.216.216,0,0,0-.151.207v1.443a.216.216,0,0,0,.266.21q.159-.038.317-.068c.194-.038.378-.07.551-.1s.329-.046.47-.057.254-.016.34-.016a3.411,3.411,0,0,1,1.3.219,2.17,2.17,0,0,1,.85.608,2.591,2.591,0,0,1,.486.932,5.444,5.444,0,0,1,.188.947.218.218,0,0,1-.216.244h-4.555a1.7,1.7,0,0,1-.43-.057,1.073,1.073,0,0,1-.388-.186.961.961,0,0,1-.276-.34,1.155,1.155,0,0,1-.1-.488v-3.589c0-.211-.105-.316-.33-.271l-1.666.3c-.21.045-.27.135-.27.36v5.226a7.983,7.983,0,0,1-.057,1.029,1.616,1.616,0,0,1-.251.713,1.1,1.1,0,0,1-.583.413,3.323,3.323,0,0,1-.849.138.216.216,0,0,0-.2.216v1.546a.218.218,0,0,0,.226.217,8.616,8.616,0,0,0,1.717-.205,2.836,2.836,0,0,0,1.238-.648,2.78,2.78,0,0,0,.734-1.191,5.572,5.572,0,0,0,.245-1.4.216.216,0,0,1,.334-.165,1.178,1.178,0,0,0,.331.143c.117.031.222.053.315.069l.008,0c.011,0,.023,0,.033,0a1.57,1.57,0,0,0,.192.019l.263,0h8.263q.324,0,.656-.025a3.53,3.53,0,0,0,.64-.1,2.172,2.172,0,0,0,.583-.251,1.6,1.6,0,0,0,.295-.235.214.214,0,0,1,.323.017,1.249,1.249,0,0,0,.581.445,2.693,2.693,0,0,0,.906.154h3.072a.225.225,0,0,0,.24-.225v-10.148C795.432,1217.782,795.327,1217.677,795.1,1217.722Z" transform="translate(-763.474 -1217.712)"/><path class="a" d="M727.388,1233.1a1.256,1.256,0,0,1,.3-.429,1.573,1.573,0,0,1,.457-.273,3.278,3.278,0,0,1,.871-.134h0c.113,0,.219-.005.3-.005.151,0,.364.014.64.04q.295.029.668.1a.26.26,0,0,0,.312-.254v-1.387a.258.258,0,0,0-.18-.247q-.2-.065-.509-.151a3.935,3.935,0,0,0-1.061-.13c-.057,0-.113,0-.169,0h0s-3.675-.02-3.686,3.1a2.518,2.518,0,0,0,.484,1.662,2.633,2.633,0,0,0,1.122.834,6.566,6.566,0,0,1,.943.4,1.566,1.566,0,0,1,.843.875,2.125,2.125,0,0,1,.024.3c-.07.735-.888,1.124-1.55,1.32-.121.031-.245.061-.367.089a6.945,6.945,0,0,1-1.678.162,6.285,6.285,0,0,1-1.515-.154,2.715,2.715,0,0,1-.972-.429,1.545,1.545,0,0,1-.518-.656,2.191,2.191,0,0,1-.154-.834v-2.534c0-.21-.1-.315-.33-.27l-1.666.3c-.21.045-.27.135-.27.36v2.429a.223.223,0,0,0,.006.049,4.394,4.394,0,0,0,.262,1.343,3.021,3.021,0,0,0,.891,1.256,4.4,4.4,0,0,0,1.628.834,8.792,8.792,0,0,0,2.479.3,11.807,11.807,0,0,0,1.517-.09h.014c2.793-.331,4.264-1.569,4.405-3.54a2.627,2.627,0,0,0-1.97-2.66s-1.312-.287-1.6-1.059A1.07,1.07,0,0,1,727.388,1233.1Z" transform="translate(-719.724 -1227.763)"/></g><g transform="translate(0 3.245)"><g transform="translate(10.396 6.31)"><path class="b" d="M346.875,1120.073a.558.558,0,0,0,.792,0l3.681-3.681a.555.555,0,0,0,.156-.387v-14.016a.557.557,0,0,0-.557-.557h-7.354a.558.558,0,0,0-.557.557V1116a.556.556,0,0,0,.156.387Z" transform="translate(-343.034 -1101.428)"/></g><path class="a" d="M304.618,1097.15a.557.557,0,0,0,.793-.007l5.6-5.6a.556.556,0,0,0,.159-.39v-21.121a.557.557,0,0,1,.557-.557h7.355a.557.557,0,0,1,.557.557v24.632a.555.555,0,0,1-.157.387l-14.078,14.079a.557.557,0,0,1-.786.005L290.54,1095.05a.556.556,0,0,1-.159-.39v-12.012a.558.558,0,0,1,.557-.557h7.354a.558.558,0,0,1,.557.557v8.5a.556.556,0,0,0,.159.39Z" transform="translate(-290.381 -1069.471)"/></g></svg>