<svg xmlns="http://www.w3.org/2000/svg" width="250" height="250" viewBox="0 0 250 250"><defs><style>.a{fill:#003c71;}.b{fill:#fff;}.c{fill:#ff681d;}</style></defs><g transform="translate(-755.527 -591.12)"><rect class="a" width="250" height="250" rx="125" transform="translate(755.527 591.12)"/><g transform="translate(772.527 668.607)"><path class="b" d="M57.668,62.978c-.283-.21-7.01-5.116-14.127-3.711a14.687,14.687,0,0,0-4.895,1.983,52.154,52.154,0,0,0,1.8-13.613c0-1.019-.035-2.034-.094-3.048h.071a21.913,21.913,0,0,0,6.9-1.063,2.073,2.073,0,0,0,1.289-2.616,2.036,2.036,0,0,0-2.583-1.305,17.825,17.825,0,0,1-5.537.848c.476-2.325,1.641-6.07,4.407-8.359s6.624-2.7,8.968-2.706a17.708,17.708,0,0,1-2.34,6,2.084,2.084,0,0,0,.577,2.865,2.026,2.026,0,0,0,2.829-.584,23.124,23.124,0,0,0,3.319-10.1A2.061,2.061,0,0,0,56.5,25.4c-.347-.05-8.564-1.153-14.181,3.493a15.318,15.318,0,0,0-3.769,4.788,51.724,51.724,0,0,0-4.769-11.569c.53-2.355,1.521-8.637-1.457-13.786C28.661,1.991,20.579.125,20.237.049a2.039,2.039,0,0,0-2.392,1.419c-.1.34-2.447,8.391,1.218,14.727,3.006,5.2,8.979,7.385,11.221,8.047a47.931,47.931,0,0,1,6.084,23.4A47.449,47.449,0,0,1,1.518,93.559,2.089,2.089,0,0,0,.051,96.012a2.059,2.059,0,0,0,2.515,1.543A50.417,50.417,0,0,0,16.7,91.3c1.418,2.612,4.267,6.753,8.8,8.589a14.828,14.828,0,0,0,5.587,1.028,22.838,22.838,0,0,0,8.976-2,2.078,2.078,0,0,0,1.03-2.607c-.126-.332-3.149-8.147-9.883-10.875a14.985,14.985,0,0,0-5.961-1.021,51.837,51.837,0,0,0,9.111-12.322A20.267,20.267,0,0,0,43.846,74.8a13.6,13.6,0,0,0,2.638-.253C53.6,73.14,58.015,66.035,58.2,65.733a2.084,2.084,0,0,0-.53-2.756Zm-28.292,26.5c3.33,1.35,5.558,4.586,6.7,6.666-2.238.709-6.038,1.493-9.387.135-3.33-1.35-5.558-4.586-6.7-6.666C22.227,88.9,26.026,88.115,29.376,89.473ZM22.465,13.792c-1.818-3.127-1.621-7.055-1.264-9.4,2.21.836,5.707,2.583,7.525,5.709s1.621,7.054,1.264,9.4C27.78,18.665,24.283,16.918,22.465,13.792Zm23.326,56.24c-3.531.674-7.145-.775-9.225-1.86,1.5-1.769,4.286-4.431,7.838-5.109,3.532-.673,7.145.775,9.225,1.86C52.124,66.693,49.343,69.354,45.791,70.032Z" transform="translate(157.998 -2.487)"/><path class="b" d="M.838,62.978c.283-.21,7.01-5.116,14.127-3.711A14.688,14.688,0,0,1,19.86,61.25a52.154,52.154,0,0,1-1.8-13.613c0-1.019.035-2.034.094-3.048H18.08a21.913,21.913,0,0,1-6.9-1.063A2.073,2.073,0,0,1,9.89,40.911a2.036,2.036,0,0,1,2.583-1.305,17.825,17.825,0,0,0,5.537.848c-.476-2.325-1.641-6.07-4.407-8.359S6.978,29.4,4.634,29.39a17.708,17.708,0,0,0,2.34,6A2.084,2.084,0,0,1,6.4,38.258a2.026,2.026,0,0,1-2.829-.584,23.123,23.123,0,0,1-3.319-10.1A2.061,2.061,0,0,1,2,25.4c.347-.05,8.564-1.153,14.181,3.493a15.318,15.318,0,0,1,3.769,4.788,51.723,51.723,0,0,1,4.769-11.569c-.53-2.355-1.521-8.637,1.457-13.786C29.845,1.991,37.927.125,38.27.049a2.039,2.039,0,0,1,2.392,1.419c.1.34,2.447,8.391-1.218,14.727-3.006,5.2-8.979,7.385-11.221,8.047a47.931,47.931,0,0,0-6.084,23.4A47.449,47.449,0,0,0,56.988,93.559a2.089,2.089,0,0,1,1.467,2.453,2.059,2.059,0,0,1-2.515,1.543A50.417,50.417,0,0,1,41.8,91.3c-1.418,2.612-4.267,6.753-8.8,8.589a14.828,14.828,0,0,1-5.587,1.028,22.838,22.838,0,0,1-8.976-2,2.078,2.078,0,0,1-1.03-2.607c.126-.332,3.149-8.147,9.883-10.875a14.985,14.985,0,0,1,5.961-1.021,51.837,51.837,0,0,1-9.111-12.322A20.267,20.267,0,0,1,14.661,74.8a13.6,13.6,0,0,1-2.638-.253C4.905,73.14.492,66.035.307,65.733a2.084,2.084,0,0,1,.53-2.756Zm28.292,26.5c-3.33,1.35-5.558,4.586-6.7,6.666,2.238.709,6.038,1.493,9.387.135,3.33-1.35,5.558-4.586,6.7-6.666C36.279,88.9,32.48,88.115,29.13,89.473Zm6.911-75.681c1.818-3.127,1.621-7.055,1.264-9.4-2.21.836-5.707,2.583-7.525,5.709s-1.621,7.054-1.264,9.4C30.727,18.665,34.223,16.918,36.041,13.792ZM12.715,70.032c3.531.674,7.145-.775,9.225-1.86-1.5-1.769-4.286-4.431-7.838-5.109-3.532-.673-7.145.775-9.225,1.86C6.382,66.693,9.163,69.354,12.715,70.032Z" transform="translate(-0.002 -2.487)"/><g transform="translate(47.053 2.647)"><path class="c" d="M-41.2-17.655v-5.478H-61.528v5.478h6.7V0h6.9V-17.655ZM-17.11,0V-23.133h-6.864v9.207h-8.217v-9.207h-6.864V0h6.864V-8.613h8.217V0ZM2.36-3.7,3.713,0h7.326L1.5-23.133H-5.56L-15.427,0h7.062l1.386-3.7ZM.545-8.712h-5.61l2.838-7.557ZM34.667,0V-23.133H28.4V-10.2L18.6-23.133H12.722V0h6.3V-12.87L28.826,0ZM53.41,0h8.217l-8.91-13.728L61.1-23.133H53.18l-7.755,8.91v-8.91H38.56V0h6.864V-5.544l2.607-2.9Zm-75.5,23.674,8.316-15.807h-6.831l-4.917,9.438-5.049-9.438h-6.864l8.481,15.939V31h6.864ZM-.973,7.669c-7.26,0-12.606,4.95-12.606,11.748,0,6.831,5.346,11.88,12.606,11.88s12.606-5.082,12.606-11.88C11.633,12.652,6.287,7.669-.973,7.669Zm.1,5.742c3.036,0,5.478,2.541,5.478,6.039S2.162,25.555-.874,25.555A5.886,5.886,0,0,1-6.55,19.45,5.806,5.806,0,0,1-.874,13.411ZM35.59,7.867H28.726V21.232c0,2.706-1.617,4.323-3.894,4.323a4.04,4.04,0,0,1-4.125-4.323V7.867H13.843V21.232C13.843,27.37,18.166,31.3,24.8,31.3c6.6,0,10.791-3.927,10.791-10.065Z" transform="translate(61.476 32)"/><path class="c" d="M4.809-8.292c-2.275,0-3.8,1.114-3.8,2.84,0,3.938,6.182,2.4,6.166,5.288C7.178.887,6.189,1.53,4.6,1.53A5.463,5.463,0,0,1,.949-.023L.384,1.107A6.269,6.269,0,0,0,4.589,2.785c2.354,0,3.97-1.177,3.97-3.013.016-3.985-6.166-2.51-6.166-5.335,0-.926.926-1.459,2.338-1.459A5.674,5.674,0,0,1,7.759-6.1l.533-1.177A6.5,6.5,0,0,0,4.809-8.292Zm13.086.016a5.586,5.586,0,0,0-5.758,5.523A5.621,5.621,0,0,0,17.895,2.8a5.618,5.618,0,0,0,5.743-5.554A5.592,5.592,0,0,0,17.895-8.276Zm0,1.192a4.387,4.387,0,0,1,4.456,4.331,4.4,4.4,0,0,1-4.456,4.346,4.428,4.428,0,0,1-4.487-4.346A4.415,4.415,0,0,1,17.895-7.084ZM45.416,2.738V-8.245H43.878l-4,7.908L35.86-8.245H34.307V2.738H35.5V-6.315l3.985,7.892h.753l4-7.892.016,9.053ZM57.8-5.531H56.572v4.064a2.727,2.727,0,0,1-2.714,3.028A2.12,2.12,0,0,1,51.566-.761v-4.77H50.343v5.1a2.912,2.912,0,0,0,3.091,3.217A3.153,3.153,0,0,0,56.572.871V2.738H57.8Zm8.285-.031a3.967,3.967,0,0,0-4.1,4.174,3.959,3.959,0,0,0,4.1,4.174,4.152,4.152,0,0,0,3.311-1.428L68.685.6a3.23,3.23,0,0,1-2.558,1.067,2.877,2.877,0,0,1-2.934-3.06,2.864,2.864,0,0,1,2.934-3.044,3.489,3.489,0,0,1,2.463.957l.675-.863A4.231,4.231,0,0,0,66.08-5.562Zm12.1-.016a3.235,3.235,0,0,0-3.217,1.9V-8.9H73.737V2.738h1.224V-1.325a2.743,2.743,0,0,1,2.793-3.028,2.141,2.141,0,0,1,2.338,2.322v4.77h1.224v-5.1A2.924,2.924,0,0,0,78.177-5.578Z" transform="translate(20.676 78.482)"/></g></g></g></svg>