<svg id="location-24" xmlns="http://www.w3.org/2000/svg" width="15.665" height="18.145" viewBox="0 0 15.665 18.145">
  <path id="Path_49" data-name="Path 49" d="M12.29,14.08A2.79,2.79,0,1,0,9.5,11.29,2.79,2.79,0,0,0,12.29,14.08Z" transform="translate(-4.458 -3.066)" fill="#ff681d"/>
  <path id="Path_50" data-name="Path 50" d="M15.372,2.794A7.833,7.833,0,0,0,4.3,13.872l.022.022,4.21,4.21a1.848,1.848,0,0,0,2.613,0l4.232-4.232a7.833,7.833,0,0,0,0-11.077Zm-10.246.83a6.658,6.658,0,1,1,9.415,9.416l-4.232,4.233a.673.673,0,0,1-.951,0L5.145,13.061l0,0-.018-.019a6.658,6.658,0,0,1,0-9.415Z" transform="translate(-2.001 -0.5)" fill="#ff681d" fill-rule="evenodd"/>
</svg>
