<svg xmlns="http://www.w3.org/2000/svg" width="16.72" height="13.68" viewBox="0 0 16.72 13.68">
  <path id="Path_34" data-name="Path 34" d="M2.47,0H14.25a2.47,2.47,0,0,1,2.466,2.33l0,.14v8.74a2.47,2.47,0,0,1-2.33,2.466l-.14,0H2.47A2.47,2.47,0,0,1,0,11.35l0-.14V2.47A2.47,2.47,0,0,1,2.33,0l.14,0h0ZM15.58,4.488,8.623,8.106a.57.57,0,0,1-.441.036L8.1,8.106,1.14,4.488V11.21a1.33,1.33,0,0,0,1.221,1.326l.109,0H14.25a1.33,1.33,0,0,0,1.326-1.221l0-.109ZM14.25,1.14H2.47A1.33,1.33,0,0,0,1.144,2.361l0,.109V3.2L8.36,6.957,15.58,3.2V2.47a1.33,1.33,0,0,0-1.221-1.326Z" fill="#003c71"/>
</svg>
