<svg xmlns="http://www.w3.org/2000/svg" width="17.263" height="16.25" viewBox="0 0 17.263 16.25">
  <path id="teams" d="M1.752-16.86V-4.032L11.54-2.35V-18.6Zm7.226,4.34-1.663.076v4.913l-1.243-.1v-4.76l-1.682.057V-13.5l4.588-.287Zm3.556.554h2.237v5.831a1.494,1.494,0,0,1-.44,1.051,1.517,1.517,0,0,1-1.071.44h-.726Zm2.237-2.676a1.662,1.662,0,0,1-.487,1.176,1.662,1.662,0,0,1-1.176.487,1.693,1.693,0,0,1-.574-.1V-16.21a1.693,1.693,0,0,1,.574-.1,1.662,1.662,0,0,1,1.176.488A1.662,1.662,0,0,1,14.771-14.643Zm1.109,3.69H18.9v3.384a1.494,1.494,0,0,1-.44,1.051,1.517,1.517,0,0,1-1.071.44H15.88Zm-.172-2.638a1.662,1.662,0,0,1,.487-1.176,1.6,1.6,0,0,1,1.176-.468,1.6,1.6,0,0,1,1.176.468,1.6,1.6,0,0,1,.468,1.176,1.6,1.6,0,0,1-.468,1.176,1.6,1.6,0,0,1-1.176.468,1.6,1.6,0,0,1-1.176-.468A1.662,1.662,0,0,1,15.708-13.591Z" transform="translate(-1.752 18.6)" fill="#343697"/>
</svg>
