<svg xmlns="http://www.w3.org/2000/svg" width="51.634" height="17" viewBox="0 0 51.634 17">
  <path id="CCD-icon" d="M10.264-7.92A9.441,9.441,0,0,1,5.721-9.012a8.149,8.149,0,0,1-3.193-3.029A8.345,8.345,0,0,1,1.365-16.42,8.345,8.345,0,0,1,2.527-20.8a8.149,8.149,0,0,1,3.193-3.029,9.49,9.49,0,0,1,4.567-1.092,9.579,9.579,0,0,1,3.863.751,7.737,7.737,0,0,1,2.9,2.16l-2.442,2.254a5.251,5.251,0,0,0-4.133-1.925,5.487,5.487,0,0,0-2.724.669,4.757,4.757,0,0,0-1.867,1.867,5.487,5.487,0,0,0-.669,2.724A5.487,5.487,0,0,0,5.885-13.7,4.757,4.757,0,0,0,7.752-11.83a5.487,5.487,0,0,0,2.724.669,5.225,5.225,0,0,0,4.133-1.949l2.442,2.254a7.612,7.612,0,0,1-2.912,2.184A9.664,9.664,0,0,1,10.264-7.92Zm16.859,0A9.441,9.441,0,0,1,22.58-9.012a8.149,8.149,0,0,1-3.193-3.029,8.345,8.345,0,0,1-1.162-4.379A8.345,8.345,0,0,1,19.386-20.8a8.149,8.149,0,0,1,3.193-3.029,9.49,9.49,0,0,1,4.567-1.092,9.579,9.579,0,0,1,3.863.751,7.737,7.737,0,0,1,2.9,2.16l-2.442,2.254a5.251,5.251,0,0,0-4.133-1.925,5.487,5.487,0,0,0-2.724.669,4.757,4.757,0,0,0-1.867,1.867,5.488,5.488,0,0,0-.669,2.724,5.488,5.488,0,0,0,.669,2.724,4.757,4.757,0,0,0,1.867,1.867,5.487,5.487,0,0,0,2.724.669,5.225,5.225,0,0,0,4.133-1.949l2.442,2.254A7.612,7.612,0,0,1,31-8.671,9.664,9.664,0,0,1,27.123-7.92Zm9.345-16.718h7.467a10.494,10.494,0,0,1,4.731,1.021A7.648,7.648,0,0,1,51.86-20.74,8.091,8.091,0,0,1,53-16.42,8.091,8.091,0,0,1,51.86-12.1a7.648,7.648,0,0,1-3.193,2.876A10.494,10.494,0,0,1,43.935-8.2H36.469Zm7.279,13.314A5.524,5.524,0,0,0,47.681-12.7a4.852,4.852,0,0,0,1.468-3.722,4.852,4.852,0,0,0-1.468-3.722,5.524,5.524,0,0,0-3.933-1.374H40.272v10.191Z" transform="translate(-1.365 24.92)" fill="#003c71"/>
</svg>
