<svg xmlns="http://www.w3.org/2000/svg" width="27.188" height="27.187" viewBox="0 0 27.188 27.187">
  <path id="Default-Qlnk-icon" d="M11.616,1.432A49.273,49.273,0,0,0,9.122,6.207,2.265,2.265,0,0,1,7.107,7.744c-1.767.382-3.466.646-5.149,1.06A2.858,2.858,0,0,0,.077,10.238a1.945,1.945,0,0,0,.08,1.325A23.722,23.722,0,0,0,4.347,16.6a2.491,2.491,0,0,1,.743,2.491c-.209,1.862-.483,3.636-.636,5.41A2.644,2.644,0,0,0,5.2,26.836a2.364,2.364,0,0,0,2.387.051,48.928,48.928,0,0,0,4.775-2.331,2.22,2.22,0,0,1,2.44,0c1.652.782,3.173,1.614,4.775,2.335a2.426,2.426,0,0,0,2.481-.129c.656-.489.663-1.415.649-2.26a39.588,39.588,0,0,0-.637-5.407,2.5,2.5,0,0,1,.743-2.493c1.246-1.383,2.484-2.659,3.608-4.032a2.374,2.374,0,0,0,.69-2.28c-.238-.884-1.13-1.229-1.91-1.485A36.116,36.116,0,0,0,20.05,7.745a2.27,2.27,0,0,1-2.015-1.538c-.856-1.648-1.6-3.324-2.493-4.775C15.017.583,14.49,0,13.577,0a2.5,2.5,0,0,0-1.961,1.432ZM13.9,2.493a44.833,44.833,0,0,1,2.438,4.615,4.087,4.087,0,0,0,3.342,2.545c1.694.348,3.242.581,4.882,1.009.578.153.537.428.265.8a36.7,36.7,0,0,1-3.449,3.818,4.338,4.338,0,0,0-1.271,4.082c.246,1.823.493,3.327.69,5.2.058.552-.156.663-.585.476-1.54-.683-3.19-1.478-4.563-2.226a3.783,3.783,0,0,0-4.141,0c-1.6.775-2.916,1.461-4.563,2.226-.425.2-.629.059-.583-.476.148-1.733.408-3.614.69-5.2a4.33,4.33,0,0,0-1.274-4.083C4.6,13.942,3.5,12.748,2.332,11.455c-.588-.653.093-.736.265-.8a27.933,27.933,0,0,1,4.88-1.008,4.087,4.087,0,0,0,3.344-2.544c.845-1.6,1.523-3.076,2.44-4.615.255-.425.421-.345.637,0Z" transform="translate(0)" fill="#ff681d"/>
</svg>
