<svg xmlns="http://www.w3.org/2000/svg" width="27.866" height="24.385" viewBox="0 0 27.866 24.385">
  <path id="ERP-icon" d="M26.752,12.17,21.495,10.2V4.3a1.958,1.958,0,0,0-1.273-1.834L14.779.42A1.941,1.941,0,0,0,13.4.42L7.959,2.461A1.958,1.958,0,0,0,6.686,4.3v5.9L1.428,12.17A1.962,1.962,0,0,0,.16,14V20a1.962,1.962,0,0,0,1.083,1.753l5.442,2.721a1.949,1.949,0,0,0,1.753,0l5.655-2.83,5.655,2.83a1.948,1.948,0,0,0,1.752,0l5.443-2.721A1.962,1.962,0,0,0,28.026,20V14A1.96,1.96,0,0,0,26.752,12.17Zm-7.108-1.927L15.018,11.98V8.268l4.626-2.014ZM8.541,4.219,14.093,2.14l5.551,2.079v.032L14.093,6.5,8.541,4.251Zm4.572,15.843L8.487,22.375V18.07l4.626-2.112Zm0-6.1L7.562,16.22,2.01,13.966v-.033l5.551-2.079,5.551,2.079Zm13.062,6.1-4.626,2.313V18.07l4.626-2.112Zm0-6.1L20.624,16.22l-5.551-2.253v-.033l5.551-2.079,5.551,2.079Z" transform="translate(-0.16 -0.293)" fill="#f47929" fill-rule="evenodd"/>
</svg>
