<svg xmlns="http://www.w3.org/2000/svg" width="34.68" height="17" viewBox="0 0 34.68 17">
  <path id="HR-icon" d="M-5.064-21V-4H-9v-6.97h-7.723V-4h-3.934V-21h3.934v6.7H-9V-21ZM9.8-4,6.521-8.736H2.9V-4H-1.032V-21H6.326a9.444,9.444,0,0,1,3.922.753,5.827,5.827,0,0,1,2.562,2.137,5.888,5.888,0,0,1,.9,3.279,5.77,5.77,0,0,1-.911,3.266,5.772,5.772,0,0,1-2.586,2.1L14.025-4ZM9.726-14.831a2.693,2.693,0,0,0-.923-2.2,4.132,4.132,0,0,0-2.7-.765H2.9v5.926H6.108a4.086,4.086,0,0,0,2.7-.777A2.7,2.7,0,0,0,9.726-14.831Z" transform="translate(20.655 21)" fill="#4d97d8"/>
</svg>
