<svg xmlns="http://www.w3.org/2000/svg" width="40.071" height="17" viewBox="0 0 40.071 17">
  <path id="ITD-icon" d="M-24.09-21h3.934V-4H-24.09ZM-12.6-17.794h-5.44V-21H-3.229v3.206h-5.44V-4H-12.6ZM-1.116-21H6.607A10.854,10.854,0,0,1,11.5-19.944a7.91,7.91,0,0,1,3.3,2.975A8.368,8.368,0,0,1,15.981-12.5,8.368,8.368,0,0,1,14.8-8.031a7.91,7.91,0,0,1-3.3,2.975A10.854,10.854,0,0,1,6.607-4H-1.116ZM6.413-7.23a5.713,5.713,0,0,0,4.068-1.421A5.018,5.018,0,0,0,12-12.5a5.018,5.018,0,0,0-1.518-3.849A5.713,5.713,0,0,0,6.413-17.77H2.819V-7.23Z" transform="translate(24.09 21)" fill="#ff681d"/>
</svg>
