<svg xmlns="http://www.w3.org/2000/svg" width="30" height="30" viewBox="0 0 30 30">
  <path id="ITSupport-icon" d="M22.666,16.44a.879.879,0,0,0-1.243,0L19.561,18.3l-2.011-2.011,4.858-4.858C26.724,12.688,30,10.508,30,5.848a7.025,7.025,0,0,0-.391-2.319A.879.879,0,0,0,28.158,3.2l-2.52,2.52h-.927L24.3,5.311c.008-.3.024-.556.032-.886L26.89,1.873A.879.879,0,0,0,26.57.426,7.028,7.028,0,0,0,24.152,0c-4.717,0-6.882,3.363-5.561,7.686l-4.825,4.825c-.047-.051-6.637-6.639-6.686-6.688V3.667a.879.879,0,0,0-.257-.621L4.088.311a.879.879,0,0,0-1.243,0L.3,2.86A.879.879,0,0,0,.3,4.1L2.972,6.779a.879.879,0,0,0,.621.257H5.808c.049.049,6.667,6.668,6.718,6.715L7.686,18.591C3.358,17.269,0,19.439,0,24.152A7.028,7.028,0,0,0,.426,26.57a.879.879,0,0,0,1.447.32l2.548-2.548h.927l.369.369v.927L3.2,28.158a.879.879,0,0,0,.332,1.451A7.025,7.025,0,0,0,5.848,30c4.65,0,6.842-3.266,5.586-7.593l4.872-4.872,2.011,2.011-1.866,1.866a.879.879,0,0,0,0,1.243l6,6a4.4,4.4,0,1,0,6.217-6.22ZM5.322,5.278H3.958l-1.8-1.8L3.467,2.176,5.322,4.031V5.278Zm4.49,16.264a.879.879,0,0,0-.208.911c.618,1.772.558,3.311-.169,4.335A4.379,4.379,0,0,1,5.6,28.237l1.614-1.614A.879.879,0,0,0,7.475,26V24.347a.879.879,0,0,0-.257-.621l-.884-.884a.879.879,0,0,0-.622-.257H4.057a.879.879,0,0,0-.621.257L1.769,24.507q-.012-.177-.012-.355c0-3.7,2.449-4.977,5.864-3.73a.879.879,0,0,0,.923-.2L20.218,8.545a.879.879,0,0,0,.2-.923c-1.249-3.42.039-5.864,3.73-5.864q.178,0,.355.012L22.841,3.436a.879.879,0,0,0-.257.621c0,.621-.041.944-.041,1.614a.879.879,0,0,0,.257.622l.926.926a.879.879,0,0,0,.621.257H26a.879.879,0,0,0,.621-.257L28.237,5.6q.006.122.006.244c0,3.639-2.365,4.95-5.789,3.756a.879.879,0,0,0-.911.208Zm17.619,5.871a2.639,2.639,0,0,1-3.734,0l-5.382-5.382L22.045,18.3l5.384,5.378a2.643,2.643,0,0,1,0,3.731Z" transform="translate(0 0)" fill="#ff681d"/>
</svg>
