<svg xmlns="http://www.w3.org/2000/svg" width="31.605" height="29.75" viewBox="0 0 31.605 29.75">
  <path id="msTeams-icon" d="M2.555-23.94V-.455l17.92,3.08v-29.75ZM15.785-16l-3.045.14v9l-2.275-.175V-15.75l-3.08.105V-17.78l8.4-.525ZM22.3-14.98H26.39V-4.305a2.736,2.736,0,0,1-.8,1.925,2.777,2.777,0,0,1-1.96.805H22.3Zm4.095-4.9a3.043,3.043,0,0,1-.892,2.153,3.043,3.043,0,0,1-2.152.892,3.1,3.1,0,0,1-1.05-.175v-5.74a3.1,3.1,0,0,1,1.05-.175,3.043,3.043,0,0,1,2.152.892A3.043,3.043,0,0,1,26.39-19.88Zm2.03,6.755h5.53v6.2a2.736,2.736,0,0,1-.805,1.925,2.777,2.777,0,0,1-1.96.8H28.42Zm-.315-4.83A3.043,3.043,0,0,1,29-20.108a2.919,2.919,0,0,1,2.153-.858,2.919,2.919,0,0,1,2.153.858,2.919,2.919,0,0,1,.858,2.153A2.919,2.919,0,0,1,33.3-15.8a2.919,2.919,0,0,1-2.153.858A2.919,2.919,0,0,1,29-15.8,3.042,3.042,0,0,1,28.105-17.955Z" transform="translate(-2.555 27.125)" fill="#343697"/>
</svg>
