<svg xmlns="http://www.w3.org/2000/svg" width="38.355" height="22.645" viewBox="0 0 38.355 22.645">
  <path id="oneDrive-icon" d="M10.43-3.64a5.024,5.024,0,0,1-2.695.735A5.207,5.207,0,0,1,4.078-4.428,5.207,5.207,0,0,1,2.555-8.085a5.175,5.175,0,0,1,1.33-3.5,5.123,5.123,0,0,1,3.29-1.68,5.544,5.544,0,0,1-.07-.91A6.33,6.33,0,0,1,8.977-18.69a6.426,6.426,0,0,1,4.533-1.855,5.948,5.948,0,0,1,3.08.805,8.645,8.645,0,0,1,2.975-2.975A8.147,8.147,0,0,1,23.73-23.87a8.2,8.2,0,0,1,5.285,1.943,8.278,8.278,0,0,1,2.8,4.812H31.36a5.57,5.57,0,0,0-1.96.315,7.937,7.937,0,0,0-2.66-1.872,8.06,8.06,0,0,0-3.22-.648,8.838,8.838,0,0,0-3.028.525,8.071,8.071,0,0,0-2.607,1.54,7.61,7.61,0,0,0-1.68,1.943,7.835,7.835,0,0,0-.945,2.363,8.992,8.992,0,0,0-1.645.49,5.579,5.579,0,0,0-2.065,1.61,6.1,6.1,0,0,0-1.207,2.082A7.546,7.546,0,0,0,9.94-6.3,7.1,7.1,0,0,0,10.43-3.64ZM37.345-9.625q3.78.945,3.553,4.445T36.82-1.225H16.45Q11.41-1.89,11.5-6.44t5.127-5.005q.665-4.865,4.988-6.038t7.368,2.678a3.687,3.687,0,0,1,2.642-.735,6.673,6.673,0,0,1,2.713.7,5.353,5.353,0,0,1,2.24,2.135A6.159,6.159,0,0,1,37.345-9.625Z" transform="translate(-2.555 23.87)" fill="#399bee"/>
</svg>
