<svg xmlns="http://www.w3.org/2000/svg" width="32.06" height="29.75" viewBox="0 0 32.06 29.75">
  <path id="outlook-icon" d="M34.685-18.41v14a1.047,1.047,0,0,1-.315.77,1.047,1.047,0,0,1-.77.315H22.19v-9.31l2.135,1.645a.767.767,0,0,0,.507.175.767.767,0,0,0,.508-.175Zm-12.5,4.025,2.625,2.065,9.835-7.84a.983.983,0,0,0-.333-.683,1.047,1.047,0,0,0-.717-.262H22.19Zm-1.645-12.74V2.625L2.625-.455V-23.94ZM15.12-12.18a6.179,6.179,0,0,0-1.172-3.763A3.66,3.66,0,0,0,11.1-17.5a3.632,3.632,0,0,0-2.818,1.557A6.179,6.179,0,0,0,7.105-12.18,6.122,6.122,0,0,0,8.278-8.453,3.632,3.632,0,0,0,11.1-6.9a3.66,3.66,0,0,0,2.853-1.557A6.122,6.122,0,0,0,15.12-12.18Zm-4.165-3.325a1.778,1.778,0,0,0-1.453.963A4.366,4.366,0,0,0,8.925-12.2,4.366,4.366,0,0,0,9.5-9.852a1.687,1.687,0,0,0,1.453.927,1.687,1.687,0,0,0,1.453-.927,4.366,4.366,0,0,0,.577-2.345,4.366,4.366,0,0,0-.577-2.345A1.778,1.778,0,0,0,10.955-15.505Z" transform="translate(-2.625 27.125)" fill="#116fdb"/>
</svg>
