<svg xmlns="http://www.w3.org/2000/svg" width="29.328" height="17.376" viewBox="0 0 29.328 17.376">
  <path id="SF-icon" d="M7.512.288A13.746,13.746,0,0,1,3.66-.252a9.034,9.034,0,0,1-2.988-1.4l1.32-2.928A8.957,8.957,0,0,0,4.56-3.312a9.646,9.646,0,0,0,2.976.48,4.754,4.754,0,0,0,2.448-.492,1.486,1.486,0,0,0,.792-1.308,1.25,1.25,0,0,0-.468-1,3.548,3.548,0,0,0-1.2-.636q-.732-.24-1.98-.528A27.37,27.37,0,0,1,3.984-7.7a5.108,5.108,0,0,1-2.1-1.464,3.954,3.954,0,0,1-.876-2.688A4.676,4.676,0,0,1,1.8-14.508a5.328,5.328,0,0,1,2.388-1.884,9.744,9.744,0,0,1,3.9-.7,12.914,12.914,0,0,1,3.144.384,9.288,9.288,0,0,1,2.688,1.1l-1.2,2.952a9.368,9.368,0,0,0-4.656-1.32,4.366,4.366,0,0,0-2.412.528,1.612,1.612,0,0,0-.78,1.392,1.361,1.361,0,0,0,.9,1.284,14.131,14.131,0,0,0,2.748.828,27.371,27.371,0,0,1,3.144.912,5.206,5.206,0,0,1,2.1,1.44A3.861,3.861,0,0,1,14.64-4.92a4.587,4.587,0,0,1-.8,2.628A5.4,5.4,0,0,1,11.424-.408,9.833,9.833,0,0,1,7.512.288ZM21.192-13.68v4.44h7.776v3.12H21.192V0H17.3V-16.8H30v3.12Z" transform="translate(-0.672 17.088)" fill="#003c71"/>
</svg>
