<svg xmlns="http://www.w3.org/2000/svg" width="35.037" height="29.75" viewBox="0 0 35.037 29.75">
  <path id="yammer-icon" d="M20.86-26.775a1.886,1.886,0,0,0-1.365.087,1.786,1.786,0,0,0-.91,1,.573.573,0,0,1-.035.14v.035q-.77,2.1-3.15,8.33l-2.7,7.07h-.1L6.405-25.76h0l-.07-.245A2,2,0,0,0,5.32-26.95a1.819,1.819,0,0,0-1.4,0,1.9,1.9,0,0,0-1.068.945,1.845,1.845,0,0,0-.087,1.435q.98,2.485,4.2,10.36L10.64-5.285,10.185-4.27A7.385,7.385,0,0,1,8.75-1.7a3.425,3.425,0,0,1-2.59,1L5.075-.735a1.569,1.569,0,0,0-1.05.3,1.7,1.7,0,0,0-.63.928A1.7,1.7,0,0,0,3.57,1.715a1.784,1.784,0,0,0,.98.805,12.924,12.924,0,0,0,1.82.14A6.205,6.205,0,0,0,11.1.945,12.844,12.844,0,0,0,13.615-3.5l3.99-9.975,4.27-10.57.14-.385.035-.07a1.825,1.825,0,0,0-.123-1.382A1.778,1.778,0,0,0,20.86-26.775Zm12.18,6.51a1.809,1.809,0,0,0,.63-1.1,1.934,1.934,0,0,0-.245-1.277,1.831,1.831,0,0,0-.893-.683A1.979,1.979,0,0,0,31.4-23.38a1.712,1.712,0,0,0-.175.1q-1.365.805-4.918,3.465t-3.377,3.43q.875.35,3.99-.945A63.982,63.982,0,0,0,33.04-20.265Zm0,16.835a63.982,63.982,0,0,0-6.125-2.94q-3.115-1.295-3.99-.945-.175.77,3.377,3.43A56.751,56.751,0,0,0,31.22-.455a.439.439,0,0,1,.175.1,1.8,1.8,0,0,0,1.138-.018,1.731,1.731,0,0,0,.893-.752,1.7,1.7,0,0,0,.245-1.208A1.809,1.809,0,0,0,33.04-3.43Zm3.29-10.255h-.245q-1.61.035-5.985.648t-4.585,1.383q.6.735,3.955,1.1a62.082,62.082,0,0,0,6.755.368,1.775,1.775,0,0,0,1.1-.665,1.8,1.8,0,0,0,.367-1.225,1.71,1.71,0,0,0-.42-1.068A1.628,1.628,0,0,0,36.33-13.685Z" transform="translate(-2.661 27.09)" fill="#265495"/>
</svg>
